<svg width="200" height="200" viewBox="0 0 200 200" fill="none" xmlns="http://www.w3.org/2000/svg">
<path d="M188.5 101C188.5 152.716 148.802 194.5 100 194.5C51.1982 194.5 11.5 152.716 11.5 101C11.5 49.2839 51.1982 7.5 100 7.5C148.802 7.5 188.5 49.2839 188.5 101Z" fill="white" stroke="black" stroke-width="3"/>
<line x1="37.2814" y1="165.184" x2="168.281" y2="41.1844" stroke="#0B0A0A" stroke-width="5"/>
<line x1="31.2814" y1="160.184" x2="162.281" y2="36.1844" stroke="#0B0A0A" stroke-width="5"/>
<g filter="url(#filter0_d_2_2)">
<path d="M36.4762 134V121.333C37.0476 121.079 37.5238 120.667 37.9048 120.095C38.3492 119.46 38.6349 118.984 38.7619 118.667C38.9524 118.159 39.0476 117.619 39.0476 117.048V75.1429C39.0476 74.4444 38.9524 73.873 38.7619 73.4286C38.5714 72.9841 38.2222 72.4127 37.7143 71.7143C37.2698 70.9524 36.6349 70.3175 35.8095 69.8095V57.9048H79.2381C84 57.9048 88.0635 59.4286 91.4286 62.4762C94.7937 65.5238 96.4762 69.3968 96.4762 74.0952C96.4762 79.1746 96.0952 82.8254 95.3333 85.0476C94.127 88.6032 91.7143 91.0476 88.0952 92.381C87.7143 92.5079 87.5238 92.8889 87.5238 93.5238C87.5238 94.0952 87.6825 94.4444 88 94.5714C92.127 96.8571 94.9206 99.7143 96.3809 103.143C97.5238 105.873 98.0952 110.032 98.0952 115.619C98.0952 120.825 96.6984 125.079 93.9048 128.381C90.7302 132.127 86.2857 134 80.5714 134H36.4762ZM72.5714 79.619C72.5714 77.7778 72.1905 76.1587 71.4286 74.7619C70.6667 73.3016 69.5238 72.5714 68 72.5714H64C63.4286 72.5714 63.0159 72.8254 62.7619 73.3333C62.6349 73.5873 62.5714 73.873 62.5714 74.1905C62.5714 74.6349 62.5714 74.9841 62.5714 75.2381V84.0952C62.5714 84.6032 62.5714 84.9841 62.5714 85.2381C62.5714 86.0635 62.6667 86.6032 62.8571 86.8571C63.1746 87.2381 63.6508 87.4286 64.2857 87.4286H68.4762C70 87.4286 71.1111 86.5714 71.8095 84.8571C72.3175 83.5873 72.5714 81.8413 72.5714 79.619ZM73.4286 110.095C73.4286 107.937 73.0476 106.095 72.2857 104.571C71.3333 102.603 69.9365 101.619 68.0952 101.619H64.0952C63.4603 101.619 63.0476 101.873 62.8571 102.381C62.7302 102.635 62.6667 103.111 62.6667 103.81C62.6667 104.635 62.6667 105.27 62.6667 105.714V114.571C62.6032 115.778 62.5714 116.603 62.5714 117.048C62.5714 117.619 62.6667 118.063 62.8571 118.381C63.1111 118.698 63.619 118.857 64.381 118.857H68.5714C70.3492 118.857 71.6508 117.905 72.4762 116C73.1111 114.54 73.4286 112.571 73.4286 110.095ZM105.519 134V121.333C106.091 121.079 106.567 120.667 106.948 120.095C107.392 119.46 107.678 118.984 107.805 118.667C107.995 118.159 108.091 117.619 108.091 117.048V75.1429C108.091 74.4444 107.995 73.873 107.805 73.4286C107.614 72.9841 107.265 72.4127 106.757 71.7143C106.313 70.9524 105.678 70.3175 104.852 69.8095V57.9048H148.281C153.043 57.9048 157.106 59.4286 160.472 62.4762C163.837 65.5238 165.519 69.3968 165.519 74.0952C165.519 79.1746 165.138 82.8254 164.376 85.0476C163.17 88.6032 160.757 91.0476 157.138 92.381C156.757 92.5079 156.567 92.8889 156.567 93.5238C156.567 94.0952 156.726 94.4444 157.043 94.5714C161.17 96.8571 163.964 99.7143 165.424 103.143C166.567 105.873 167.138 110.032 167.138 115.619C167.138 120.825 165.741 125.079 162.948 128.381C159.773 132.127 155.329 134 149.614 134H105.519ZM141.614 79.619C141.614 77.7778 141.233 76.1587 140.472 74.7619C139.71 73.3016 138.567 72.5714 137.043 72.5714H133.043C132.472 72.5714 132.059 72.8254 131.805 73.3333C131.678 73.5873 131.614 73.873 131.614 74.1905C131.614 74.6349 131.614 74.9841 131.614 75.2381V84.0952C131.614 84.6032 131.614 84.9841 131.614 85.2381C131.614 86.0635 131.71 86.6032 131.9 86.8571C132.218 87.2381 132.694 87.4286 133.329 87.4286H137.519C139.043 87.4286 140.154 86.5714 140.852 84.8571C141.36 83.5873 141.614 81.8413 141.614 79.619ZM142.472 110.095C142.472 107.937 142.091 106.095 141.329 104.571C140.376 102.603 138.979 101.619 137.138 101.619H133.138C132.503 101.619 132.091 101.873 131.9 102.381C131.773 102.635 131.71 103.111 131.71 103.81C131.71 104.635 131.71 105.27 131.71 105.714V114.571C131.646 115.778 131.614 116.603 131.614 117.048C131.614 117.619 131.71 118.063 131.9 118.381C132.154 118.698 132.662 118.857 133.424 118.857H137.614C139.392 118.857 140.694 117.905 141.519 116C142.154 114.54 142.472 112.571 142.472 110.095Z" fill="black"/>
</g>
<line x1="32.2599" y1="158.158" x2="161.334" y2="36.236" stroke="white" stroke-width="4.96066"/>
<defs>
<filter id="filter0_d_2_2" x="31.8095" y="57.9048" width="139.329" height="84.0952" filterUnits="userSpaceOnUse" color-interpolation-filters="sRGB">
<feFlood flood-opacity="0" result="BackgroundImageFix"/>
<feColorMatrix in="SourceAlpha" type="matrix" values="0 0 0 0 0 0 0 0 0 0 0 0 0 0 0 0 0 0 127 0" result="hardAlpha"/>
<feOffset dy="4"/>
<feGaussianBlur stdDeviation="2"/>
<feComposite in2="hardAlpha" operator="out"/>
<feColorMatrix type="matrix" values="0 0 0 0 0 0 0 0 0 0 0 0 0 0 0 0 0 0 0.25 0"/>
<feBlend mode="normal" in2="BackgroundImageFix" result="effect1_dropShadow_2_2"/>
<feBlend mode="normal" in="SourceGraphic" in2="effect1_dropShadow_2_2" result="shape"/>
</filter>
</defs>
</svg>
